<svg xmlns="http://www.w3.org/2000/svg" viewBox="0 0 72 56">
<style>
  .b{fill:var(--bodyfill,url(#grad));}.e{fill:#0f0f0d;}.w{fill:#f2f2ee;}.br{fill:#45453e;}
  @media (prefers-reduced-motion: no-preference){svg{animation:hue 7s linear infinite;}@keyframes hue{to{filter:hue-rotate(360deg);}}}
</style>
<linearGradient id="grad" gradientUnits="userSpaceOnUse" x1="0" y1="56" x2="72" y2="0"><stop offset="0%" stop-color="#ff3b3b"/><stop offset="18%" stop-color="#ff9a3b"/><stop offset="36%" stop-color="#ffe23b"/><stop offset="52%" stop-color="#3bff6e"/><stop offset="68%" stop-color="#3bd8ff"/><stop offset="84%" stop-color="#5a5aff"/><stop offset="100%" stop-color="#c23bff"/></linearGradient>
<g shape-rendering="crispEdges"><g class="br"><rect x="0" y="52" width="4" height="4"/><rect x="4" y="52" width="4" height="4"/><rect x="12" y="52" width="4" height="4"/><rect x="20" y="52" width="4" height="4"/><rect x="24" y="52" width="4" height="4"/><rect x="28" y="52" width="4" height="4"/><rect x="32" y="52" width="4" height="4"/><rect x="36" y="52" width="4" height="4"/><rect x="40" y="52" width="4" height="4"/><rect x="44" y="52" width="4" height="4"/><rect x="48" y="52" width="4" height="4"/><rect x="56" y="52" width="4" height="4"/><rect x="64" y="52" width="4" height="4"/><rect x="68" y="52" width="4" height="4"/></g><g class="b"><rect x="32" y="0" width="4" height="4"/><rect x="36" y="0" width="4" height="4"/><rect x="28" y="4" width="4" height="4"/><rect x="32" y="4" width="4" height="4"/><rect x="36" y="4" width="4" height="4"/><rect x="40" y="4" width="4" height="4"/><rect x="16" y="8" width="4" height="4"/><rect x="20" y="8" width="4" height="4"/><rect x="24" y="8" width="4" height="4"/><rect x="28" y="8" width="4" height="4"/><rect x="32" y="8" width="4" height="4"/><rect x="36" y="8" width="4" height="4"/><rect x="40" y="8" width="4" height="4"/><rect x="44" y="8" width="4" height="4"/><rect x="48" y="8" width="4" height="4"/><rect x="52" y="8" width="4" height="4"/><rect x="16" y="12" width="4" height="4"/><rect x="20" y="12" width="4" height="4"/><rect x="24" y="12" width="4" height="4"/><rect x="28" y="12" width="4" height="4"/><rect x="32" y="12" width="4" height="4"/><rect x="36" y="12" width="4" height="4"/><rect x="40" y="12" width="4" height="4"/><rect x="44" y="12" width="4" height="4"/><rect x="48" y="12" width="4" height="4"/><rect x="52" y="12" width="4" height="4"/><rect x="16" y="16" width="4" height="4"/><rect x="20" y="16" width="4" height="4"/><rect x="24" y="16" width="4" height="4"/><rect x="28" y="16" width="4" height="4"/><rect x="32" y="16" width="4" height="4"/><rect x="36" y="16" width="4" height="4"/><rect x="40" y="16" width="4" height="4"/><rect x="44" y="16" width="4" height="4"/><rect x="48" y="16" width="4" height="4"/><rect x="52" y="16" width="4" height="4"/><rect x="16" y="20" width="4" height="4"/><rect x="20" y="20" width="4" height="4"/><rect x="24" y="20" width="4" height="4"/><rect x="28" y="20" width="4" height="4"/><rect x="32" y="20" width="4" height="4"/><rect x="36" y="20" width="4" height="4"/><rect x="40" y="20" width="4" height="4"/><rect x="44" y="20" width="4" height="4"/><rect x="48" y="20" width="4" height="4"/><rect x="52" y="20" width="4" height="4"/><rect x="8" y="24" width="4" height="4"/><rect x="12" y="24" width="4" height="4"/><rect x="16" y="24" width="4" height="4"/><rect x="20" y="24" width="4" height="4"/><rect x="24" y="24" width="4" height="4"/><rect x="28" y="24" width="4" height="4"/><rect x="32" y="24" width="4" height="4"/><rect x="36" y="24" width="4" height="4"/><rect x="40" y="24" width="4" height="4"/><rect x="44" y="24" width="4" height="4"/><rect x="48" y="24" width="4" height="4"/><rect x="52" y="24" width="4" height="4"/><rect x="56" y="24" width="4" height="4"/><rect x="60" y="24" width="4" height="4"/><rect x="8" y="28" width="4" height="4"/><rect x="12" y="28" width="4" height="4"/><rect x="16" y="28" width="4" height="4"/><rect x="52" y="28" width="4" height="4"/><rect x="56" y="28" width="4" height="4"/><rect x="60" y="28" width="4" height="4"/><rect x="12" y="32" width="4" height="4"/><rect x="16" y="32" width="4" height="4"/><rect x="20" y="32" width="4" height="4"/><rect x="24" y="32" width="4" height="4"/><rect x="28" y="32" width="4" height="4"/><rect x="32" y="32" width="4" height="4"/><rect x="36" y="32" width="4" height="4"/><rect x="40" y="32" width="4" height="4"/><rect x="44" y="32" width="4" height="4"/><rect x="48" y="32" width="4" height="4"/><rect x="52" y="32" width="4" height="4"/><rect x="56" y="32" width="4" height="4"/><rect x="16" y="36" width="4" height="4"/><rect x="20" y="36" width="4" height="4"/><rect x="24" y="36" width="4" height="4"/><rect x="28" y="36" width="4" height="4"/><rect x="32" y="36" width="4" height="4"/><rect x="36" y="36" width="4" height="4"/><rect x="40" y="36" width="4" height="4"/><rect x="44" y="36" width="4" height="4"/><rect x="48" y="36" width="4" height="4"/><rect x="52" y="36" width="4" height="4"/><rect x="16" y="40" width="4" height="4"/><rect x="20" y="40" width="4" height="4"/><rect x="24" y="40" width="4" height="4"/><rect x="28" y="40" width="4" height="4"/><rect x="32" y="40" width="4" height="4"/><rect x="36" y="40" width="4" height="4"/><rect x="40" y="40" width="4" height="4"/><rect x="44" y="40" width="4" height="4"/><rect x="48" y="40" width="4" height="4"/><rect x="52" y="40" width="4" height="4"/><rect x="12" y="44" width="4" height="4"/><rect x="24" y="44" width="4" height="4"/><rect x="28" y="44" width="4" height="4"/><rect x="32" y="44" width="4" height="4"/><rect x="36" y="44" width="4" height="4"/><rect x="40" y="44" width="4" height="4"/><rect x="44" y="44" width="4" height="4"/><rect x="56" y="44" width="4" height="4"/><rect x="12" y="48" width="4" height="4"/><rect x="24" y="48" width="4" height="4"/><rect x="28" y="48" width="4" height="4"/><rect x="32" y="48" width="4" height="4"/><rect x="36" y="48" width="4" height="4"/><rect x="40" y="48" width="4" height="4"/><rect x="44" y="48" width="4" height="4"/><rect x="56" y="48" width="4" height="4"/><rect x="8" y="52" width="4" height="4"/><rect x="16" y="52" width="4" height="4"/><rect x="52" y="52" width="4" height="4"/><rect x="60" y="52" width="4" height="4"/></g><g class="w"><rect x="4" y="12" width="4" height="4"/><rect x="8" y="12" width="4" height="4"/><rect x="12" y="12" width="4" height="4"/><rect x="56" y="12" width="4" height="4"/><rect x="60" y="12" width="4" height="4"/><rect x="64" y="12" width="4" height="4"/><rect x="4" y="16" width="4" height="4"/><rect x="8" y="16" width="4" height="4"/><rect x="60" y="16" width="4" height="4"/><rect x="64" y="16" width="4" height="4"/><rect x="4" y="20" width="4" height="4"/><rect x="8" y="20" width="4" height="4"/><rect x="12" y="20" width="4" height="4"/><rect x="56" y="20" width="4" height="4"/><rect x="60" y="20" width="4" height="4"/><rect x="64" y="20" width="4" height="4"/></g><g class="e"><rect x="12" y="16" width="4" height="4"/><rect x="56" y="16" width="4" height="4"/><rect x="20" y="28" width="4" height="4"/><rect x="24" y="28" width="4" height="4"/><rect x="28" y="28" width="4" height="4"/><rect x="32" y="28" width="4" height="4"/><rect x="36" y="28" width="4" height="4"/><rect x="40" y="28" width="4" height="4"/><rect x="44" y="28" width="4" height="4"/><rect x="48" y="28" width="4" height="4"/></g></g>
</svg>
