<svg xmlns="http://www.w3.org/2000/svg" xmlns:xlink="http://www.w3.org/1999/xlink" width="1945px" height="849px" viewBox="0 0 1945.1168603225688 849.4972702118239">
    <g id="ed0ca0d5-2b89-4f77-bc12-6b7986e7312b">
<g style="">
		<g id="ed0ca0d5-2b89-4f77-bc12-6b7986e7312b-child-0">
<path style="stroke: rgb(193,193,193); stroke-opacity: 1.00; stroke-width: 0; stroke-dasharray: none; stroke-linecap: butt; stroke-dashoffset: 0; stroke-linejoin: miter; stroke-miterlimit: 4; fill: rgb(250,250,250); fill-opacity: 1.00; fill-rule: nonzero; opacity: 1;" transform="matrix(1.920266 0 0 1.919797 972.55843 424.748635) matrix(1 0 0 1 0 0)  translate(-694.42052, -383.75336)" d="M 360.50 548.45 L 358.42 554.50 L 351.19 554.79 C 343.01 555.13 342.32 554.55 343.45 548.24 C 344.95 539.84 353.32 506.63 357.09 494.10 C 361.84 478.34 363.04 469.34 362.28 454.99 C 361.59 441.90 361.81 441.62 372.49 442.16 L 380.00 442.54 L 380.00 434.46 C 380.00 429.51 379.52 425.77 378.75 424.80 C 378.06 423.92 372.92 419.56 367.33 415.10 C 354.87 405.16 343.69 393.29 336.05 381.90 C 329.12 371.56 325.90 364.94 322.01 353.04 C 314.56 330.22 315.61 306.89 325.15 283.79 L 328.42 275.86 L 339.71 287.84 C 356.06 305.18 360.06 306.81 378.14 303.45 C 387.74 301.66 408.66 296.24 411.25 294.86 C 414.23 293.28 413.32 288.29 408.37 279.10 C 405.83 274.37 401.97 267.12 399.80 263.00 L 395.85 255.50 L 408.92 268.81 C 416.11 276.14 422.45 281.84 423.02 281.49 C 425.26 280.10 432.35 269.47 435.56 262.68 C 443.87 245.10 444.19 219.35 436.35 200.50 C 435.96 199.58 435.60 198.74 435.28 197.98 C 433.77 194.45 432.99 192.61 433.59 191.71 C 434.26 190.74 436.57 190.90 441.42 191.23 C 442.38 191.29 443.43 191.36 444.60 191.43 C 477.47 193.43 505.55 203.38 530.11 221.75 C 533.97 224.64 537.28 227.00 537.45 227.00 C 537.63 227.00 538.09 224.88 538.48 222.29 C 540.19 210.91 545.80 203.98 553.28 204.02 C 558.29 204.05 566.74 207.35 573.22 211.81 C 580.25 216.65 594.33 230.34 601.57 239.38 C 615.35 256.61 625.07 281.70 626.55 303.83 L 627.06 311.50 L 625.12 304.50 C 619.19 283.13 610.52 265.76 596.74 247.65 C 584.63 231.75 566.15 215.62 556.83 212.83 C 553.49 211.83 552.74 211.93 550.90 213.59 C 548.52 215.75 543.53 223.86 544.19 224.52 C 544.42 224.75 546.31 223.79 548.39 222.38 C 556.74 216.70 561.47 217.41 568.83 225.42 C 578.77 236.23 586.98 262.92 587.00 284.42 C 587.00 290.95 586.34 289.96 584.59 280.78 C 580.56 259.74 567.98 233.63 559.85 229.42 C 556.44 227.66 551.62 228.11 546.72 230.64 L 543.87 232.12 L 552.69 241.37 C 577.97 267.91 593.37 312.27 589.02 346.00 C 587.94 354.41 583.30 371.51 581.25 374.65 C 580.84 375.29 580.47 368.76 580.43 360.15 C 580.36 343.29 578.85 335.13 577.53 344.50 C 575.40 359.68 570.77 370.52 561.92 381.09 C 553.67 390.94 551.55 402.17 552.23 432.25 C 552.48 443.39 553.07 453.40 553.53 454.50 C 554.25 456.21 554.15 456.32 552.84 455.25 C 551.99 454.56 549.80 450.75 547.96 446.77 C 544.71 439.71 544.61 439.61 543.83 442.52 C 543.39 444.16 541.66 453.83 539.97 464.00 C 538.29 474.17 536.57 484.52 536.14 487.00 L 535.38 491.50 L 534.19 486.20 C 533.53 483.29 533.00 479.57 533.00 477.95 C 533.00 476.33 532.62 475.00 532.15 475.00 C 531.27 475.00 528.56 489.38 527.15 501.50 L 526.34 508.50 L 524.17 503.67 C 521.52 497.77 518.30 485.44 517.40 477.72 C 517.03 474.57 516.44 472.00 516.09 472.00 C 515.74 472.00 514.59 473.62 513.52 475.59 C 509.56 482.95 504.76 484.50 495.62 481.39 C 493.02 480.50 490.75 479.94 490.57 480.14 C 490.40 480.34 491.53 483.63 493.09 487.45 C 494.66 491.27 495.75 494.58 495.53 494.80 C 494.88 495.46 486.18 485.86 482.80 480.75 C 481.08 478.14 479.50 476.17 479.30 476.37 C 478.65 477.01 483.01 495.68 485.55 503.13 C 486.90 507.10 488.00 510.80 488.00 511.35 C 488.00 513.14 483.13 507.83 478.14 500.59 C 468.94 487.24 461.86 471.09 456.39 451.00 L 453.00 438.50 L 453.52 451.50 C 453.81 458.65 454.27 466.30 454.55 468.50 C 455.05 472.44 455.00 472.40 451.65 466.00 C 443.34 450.15 437.32 425.06 436.32 402.15 C 435.97 394.26 435.35 388.41 434.94 389.15 C 434.53 389.89 433.05 395.67 431.65 402.00 C 428.44 416.51 426.66 435.85 427.46 447.50 C 427.89 453.69 427.77 456.00 427.08 454.90 C 425.10 451.76 421.03 433.78 420.48 425.72 C 419.47 411.15 419.06 409.15 416.94 408.48 C 415.87 408.14 413.62 406.71 411.95 405.31 C 410.28 403.90 408.78 402.92 408.62 403.13 C 408.46 403.33 406.82 405.75 404.97 408.50 C 403.13 411.25 398.78 416.63 395.31 420.46 C 389.12 427.28 389.00 427.53 389.00 433.09 C 389.00 436.20 388.73 440.09 388.40 441.73 C 387.84 444.57 388.03 444.78 392.87 446.36 C 400.26 448.78 411.54 454.08 419.21 458.75 C 433.35 467.35 453.56 484.31 456.54 490.08 C 457.60 492.12 458.00 496.46 458.00 505.77 L 458.00 518.65 L 462.32 525.57 C 475.70 546.99 480.00 554.03 480.00 554.49 C 480.00 554.77 473.06 555.00 464.59 555.00 L 449.17 555.00 L 445.42 548.25 C 436.27 531.77 427.34 521.92 417.25 517.20 C 412.34 514.89 410.19 514.50 402.48 514.50 C 394.23 514.50 392.86 514.79 386.48 517.93 C 374.60 523.77 365.18 534.83 360.50 548.45 z M 198.99 423.20 C 197.23 434.77 197.47 460.30 199.44 472.50 C 204.20 501.92 216.67 525.97 236.74 544.44 L 241.98 549.26 L 236.85 540.38 C 226.98 523.34 218.14 500.57 214.17 482.00 C 206.33 445.39 209.24 407.06 222.96 366.00 C 238.58 319.23 262.44 277.47 297.62 235.33 C 325.26 202.22 341.51 191.94 359.11 196.45 C 367.79 198.67 373.00 201.96 382.44 211.17 L 390.50 219.03 L 385.43 218.41 C 378.98 217.62 369.57 219.96 362.08 224.22 C 354.77 228.37 341.85 241.50 335.21 251.52 C 323.97 268.49 314.22 290.43 307.45 314.00 C 290.86 371.76 290.89 415.64 307.55 450.85 C 312.39 461.09 317.90 469.30 327.12 479.98 L 333.12 486.93 L 330.97 497.12 C 322.27 538.43 302.60 574.41 278.57 592.94 C 272.86 597.35 258.62 605.00 256.13 605.00 C 255.35 605.00 256.82 603.15 259.39 600.89 C 265.06 595.89 267.00 592.38 267.00 587.08 C 267.00 581.29 263.10 577.42 250.82 571.04 C 238.57 564.67 234.03 561.69 223.89 553.33 C 203.21 536.28 191.84 500.59 191.84 500.59 C 191.84 500.59 187.43 478.53 188.00 468.50 C 188.83 453.76 199.68 418.64 198.99 423.20 z M 697.24 455.50 L 692.50 469.50 L 681.50 469.75 C 675.45 469.89 669.93 469.64 669.24 469.19 C 668.54 468.74 665.32 460.52 662.07 450.93 C 658.82 441.35 650.73 417.78 644.08 398.56 C 637.44 379.35 632.00 363.56 632.00 363.48 C 632.00 363.19 655.24 363.91 655.54 364.21 C 655.71 364.38 661.07 380.36 667.44 399.72 C 673.81 419.08 679.52 436.18 680.14 437.71 C 681.15 440.26 682.37 437.14 694.07 402.00 L 706.90 363.50 L 717.70 363.22 L 728.50 362.94 L 741.39 401.50 C 748.47 422.71 754.50 439.83 754.79 439.55 C 755.07 439.26 757.71 431.93 760.65 423.26 C 763.59 414.59 769.39 397.60 773.53 385.50 L 781.06 363.50 L 792.03 363.50 C 798.06 363.50 803.00 363.79 803.00 364.15 C 803.00 364.76 773.82 449.20 768.83 463.00 L 766.49 469.50 L 755.29 469.78 C 744.56 470.05 744.03 469.97 742.67 467.78 C 741.88 466.53 736.17 450.42 729.96 432.00 C 723.76 413.58 718.36 398.13 717.98 397.69 C 717.35 396.96 712.36 410.89 697.24 455.50 z M 1162.63 467.59 C 1157.53 469.88 1154.82 470.40 1146.50 470.67 C 1127.57 471.28 1114.43 464.78 1107.21 451.24 C 1101.37 440.29 1101.00 437.15 1101.00 398.94 L 1101.00 364.29 L 1108.65 363.65 C 1112.86 363.29 1118.26 363.00 1120.65 363.00 L 1125.00 363.00 L 1125.00 396.37 C 1125.00 431.95 1125.28 434.37 1130.14 441.19 C 1131.36 442.91 1134.78 445.38 1137.90 446.81 C 1153.70 454.04 1171.36 445.53 1174.91 428.97 C 1175.56 425.95 1176.00 411.55 1176.00 393.32 L 1176.00 362.74 L 1179.75 363.36 C 1181.81 363.70 1187.21 363.98 1191.75 363.99 L 1200.00 364.00 L 1200.00 470.07 L 1177.50 469.50 L 1176.50 456.88 L 1172.63 460.86 C 1170.50 463.05 1166.00 466.08 1162.63 467.59 z M 494.19 472.55 C 497.66 473.84 501.29 474.92 502.25 474.95 C 504.47 475.01 507.36 472.13 509.92 467.29 C 512.93 461.61 515.12 459.32 519.10 457.70 C 521.80 456.59 522.85 455.48 523.30 453.24 C 523.68 451.37 525.42 449.04 527.95 447.04 C 531.57 444.17 532.00 443.37 532.00 439.48 C 532.00 435.63 532.64 434.40 537.53 428.81 C 540.57 425.34 543.32 421.51 543.63 420.29 C 544.04 418.70 542.80 415.99 539.25 410.68 C 531.80 399.54 531.57 393.73 538.10 380.80 C 540.82 375.41 541.00 374.31 541.00 363.03 C 541.00 356.41 540.66 351.00 540.25 351.00 C 539.84 351.01 538.66 353.06 537.62 355.57 C 535.56 360.59 526.15 375.48 525.47 374.80 C 525.23 374.56 526.13 370.35 527.46 365.44 C 530.55 354.04 532.01 343.15 531.95 332.18 L 531.89 323.50 L 529.20 326.85 C 527.71 328.69 523.69 333.73 520.25 338.05 C 514.97 344.68 502.98 355.00 500.55 355.00 C 500.17 355.00 500.74 353.76 501.80 352.25 C 504.19 348.86 507.49 342.34 508.50 339.00 C 509.12 336.96 508.17 337.53 503.38 342.04 C 500.15 345.09 495.39 349.08 492.81 350.92 C 488.43 354.03 488.06 354.64 487.42 359.80 C 487.04 362.85 486.99 372.35 487.31 380.92 C 487.96 398.06 489.96 408.85 494.82 421.36 C 496.45 425.56 497.50 428.97 497.14 428.93 C 495.65 428.78 487.16 417.67 484.44 412.31 L 481.50 406.50 L 481.19 417.50 C 481.01 423.55 481.37 433.45 481.98 439.50 C 483.02 449.73 486.45 468.78 487.44 469.77 C 487.68 470.01 490.71 471.26 494.19 472.55 z M 1058.02 383.00 L 1057.50 469.50 L 1046.45 469.78 C 1040.37 469.94 1035.08 469.75 1034.70 469.36 C 1034.31 468.98 1034.00 449.39 1034.00 425.83 L 1034.00 383.00 L 1017.00 383.00 L 1017.00 364.00 L 1033.71 364.00 L 1034.27 353.90 C 1034.74 345.27 1035.28 342.88 1037.95 337.44 C 1041.66 329.92 1047.11 324.90 1054.92 321.81 C 1062.86 318.67 1078.05 318.72 1086.25 321.91 C 1089.41 323.14 1092.00 324.65 1092.00 325.26 C 1092.00 325.88 1090.80 330.06 1089.33 334.57 L 1086.67 342.75 L 1082.58 340.90 C 1077.30 338.50 1069.46 338.47 1065.06 340.83 C 1060.02 343.53 1058.00 348.08 1058.00 356.73 L 1058.00 364.00 L 1086.00 364.00 L 1086.00 383.00 z M 288.23 233.37 C 278.57 234.51 261.41 234.89 258.69 234.03 C 254.09 232.57 252.76 230.96 253.42 227.64 C 253.97 224.88 292.27 166.00 293.52 166.00 C 295.34 166.00 327.97 184.86 330.97 187.65 C 332.25 188.83 331.24 190.25 323.41 198.26 C 314.72 207.16 306.15 216.77 297.20 227.66 C 293.44 232.25 292.44 232.88 288.23 233.37 z M 410.28 217.89 C 404.66 219.62 399.43 221.28 398.65 221.58 C 397.72 221.94 395.68 219.79 392.67 215.25 C 387.81 207.94 373.07 193.06 366.16 188.49 C 363.87 186.97 362.02 185.46 362.04 185.12 C 362.13 183.88 402.01 161.89 403.03 162.52 C 403.61 162.87 408.64 169.99 414.20 178.33 C 419.77 186.68 425.83 195.48 427.67 197.89 C 434.81 207.31 431.23 211.43 410.28 217.89 z M 347.96 261.59 C 344.41 263.18 339.14 266.41 336.25 268.75 C 333.36 271.10 331.00 272.78 331.00 272.48 C 331.00 271.23 337.58 258.99 341.63 252.71 C 355.30 231.51 377.81 219.37 391.32 225.91 C 401.74 230.96 400.91 243.36 389.41 254.54 C 381.91 261.82 371.46 263.71 358.96 260.03 C 354.66 258.77 354.09 258.85 347.96 261.59 z M 414.98 395.98 C 417.28 398.28 419.31 400.02 419.48 399.83 C 419.65 399.65 420.53 394.33 421.43 388.00 C 422.90 377.76 427.78 355.28 429.51 350.82 C 430.02 349.51 429.32 348.91 426.36 348.09 C 418.49 345.92 410.84 350.29 407.04 359.14 C 405.19 363.42 404.87 365.72 405.17 372.41 C 405.62 382.22 408.75 389.75 414.98 395.98 z M 1014.55 526.55 C 1011.71 529.38 1005.60 529.90 1002.44 527.57 C 999.41 525.33 1001.76 523.71 1005.82 525.24 C 1009.37 526.58 1012.25 525.55 1012.81 522.73 C 1013.05 521.47 1012.38 521.27 1009.31 521.68 C 1003.79 522.42 1000.00 519.26 1000.00 513.93 C 1000.00 507.86 1002.45 506.05 1010.46 506.18 L 1017.00 506.30 L 1017.00 515.19 C 1017.00 523.31 1016.78 524.31 1014.55 526.55 z M 1181.55 526.55 C 1178.75 529.34 1172.62 529.91 1169.54 527.65 C 1166.72 525.59 1168.39 523.94 1171.93 525.28 C 1175.31 526.56 1180.00 525.01 1180.00 522.62 C 1180.00 521.55 1179.06 521.32 1176.25 521.69 C 1170.79 522.42 1167.00 519.24 1167.00 513.93 C 1167.00 507.86 1169.45 506.05 1177.46 506.18 L 1184.00 506.30 L 1184.00 515.19 C 1184.00 523.31 1183.78 524.31 1181.55 526.55 z M 849.00 527.00 C 845.69 530.31 834.27 529.06 835.62 525.54 C 835.91 524.80 836.05 524.36 836.35 524.19 C 836.76 523.95 837.45 524.22 839.21 524.89 L 839.57 525.03 C 842.86 526.28 845.66 525.50 847.03 522.95 C 847.99 521.16 847.76 521.07 843.61 521.64 C 839.72 522.17 838.83 521.92 836.58 519.67 C 833.21 516.30 833.16 511.75 836.44 508.47 C 838.55 506.36 839.73 506.05 844.94 506.19 L 851.00 506.36 L 851.00 515.68 C 851.00 523.67 850.71 525.29 849.00 527.00 z M 1091.00 510.71 L 1091.00 522.57 L 1084.91 522.74 C 1077.27 522.95 1074.00 520.40 1074.00 514.22 C 1074.00 508.74 1077.42 505.64 1082.89 506.16 C 1086.84 506.54 1086.91 506.49 1087.20 503.03 C 1087.41 500.63 1088.05 499.41 1089.25 499.18 C 1090.84 498.88 1091.00 499.96 1091.00 510.71 z M 1143.00 511.29 L 1143.00 522.59 L 1137.75 522.68 C 1131.25 522.80 1128.48 521.58 1126.98 517.95 C 1124.20 511.24 1128.79 505.31 1136.02 506.28 C 1139.99 506.81 1140.00 506.80 1140.00 503.40 C 1140.00 501.04 1140.46 500.00 1141.50 500.00 C 1142.74 500.00 1143.00 501.92 1143.00 511.29 z M 1161.55 520.55 C 1157.86 524.23 1150.37 523.44 1148.07 519.12 C 1144.85 513.11 1148.88 506.00 1155.50 506.00 C 1163.13 506.00 1166.94 515.15 1161.55 520.55 z M 643.07 517.76 C 641.55 522.33 638.95 524.35 637.53 522.05 C 636.93 521.08 632.00 507.06 632.00 506.32 C 632.00 506.15 632.81 506.00 633.81 506.00 C 635.14 506.00 636.14 507.63 637.63 512.25 L 639.64 518.50 L 641.65 512.50 C 644.31 504.57 646.45 504.43 649.28 512.00 L 651.34 517.50 L 653.12 513.50 C 654.09 511.30 655.10 508.71 655.35 507.75 C 655.79 506.08 659.06 505.18 658.95 506.75 C 658.92 507.16 657.65 510.88 656.12 515.00 C 652.61 524.51 650.45 525.07 647.63 517.22 C 646.58 514.32 645.48 512.18 645.19 512.48 C 644.89 512.78 643.94 515.15 643.07 517.76 z M 674.13 521.93 C 670.42 523.92 666.04 523.19 662.92 520.08 C 659.67 516.82 659.29 514.27 661.46 510.07 C 663.14 506.84 664.79 506.00 669.51 506.00 C 673.34 506.00 677.00 509.71 677.00 513.59 C 677.00 515.76 676.56 515.93 670.25 516.20 L 663.50 516.50 L 666.29 518.39 C 668.54 519.91 669.55 520.07 671.47 519.20 C 673.30 518.36 674.11 518.43 674.99 519.49 C 675.88 520.56 675.69 521.10 674.13 521.93 z M 1046.55 520.55 C 1044.80 522.30 1042.99 523.00 1040.27 523.00 C 1032.94 523.00 1030.02 518.37 1030.01 506.75 C 1030.00 501.29 1030.13 501.00 1032.48 501.00 C 1034.91 501.00 1034.96 501.14 1034.39 506.75 C 1033.70 513.59 1035.02 517.60 1038.48 519.17 C 1040.56 520.12 1041.33 520.01 1043.00 518.50 C 1044.68 516.98 1045.00 515.43 1045.00 508.85 C 1045.00 501.67 1045.17 501.00 1047.00 501.00 C 1048.84 501.00 1049.00 501.67 1049.00 509.55 C 1049.00 517.29 1048.77 518.32 1046.55 520.55 z M 869.29 521.75 C 867.30 523.24 862.35 523.28 859.36 521.83 C 854.69 519.57 853.65 512.26 857.45 508.45 C 862.23 503.68 870.83 506.20 871.28 512.50 L 871.50 515.50 L 858.50 516.50 L 861.29 518.39 C 863.64 519.98 864.50 520.09 866.70 519.09 C 869.96 517.60 872.02 519.71 869.29 521.75 z M 802.29 521.75 C 799.62 523.75 794.40 523.25 791.46 520.72 C 785.64 515.71 789.37 506.00 797.10 506.00 C 801.36 506.00 805.00 509.51 805.00 513.63 C 805.00 515.86 804.64 516.00 799.00 516.00 C 792.62 516.00 791.28 517.26 795.57 519.22 C 797.58 520.13 798.60 520.11 800.21 519.10 C 801.90 518.05 802.42 518.06 803.12 519.16 C 803.66 520.02 803.37 520.95 802.29 521.75 z M 1108.46 521.65 C 1105.46 523.85 1100.23 523.32 1097.45 520.55 C 1094.13 517.22 1094.06 511.23 1097.31 508.17 C 1102.24 503.55 1111.00 506.84 1111.00 513.31 C 1111.00 515.93 1110.84 516.00 1105.00 516.00 C 1098.60 516.00 1097.17 517.35 1101.72 519.08 C 1103.58 519.79 1105.15 519.80 1106.69 519.10 C 1109.63 517.76 1111.03 519.77 1108.46 521.65 z M 733.04 521.46 C 731.59 523.20 726.58 523.39 723.36 521.83 C 718.69 519.57 717.65 512.26 721.45 508.45 C 726.43 503.48 735.00 506.35 735.00 513.00 C 735.00 516.00 735.00 516.00 729.03 516.00 C 724.31 516.00 723.18 516.29 723.60 517.41 C 724.36 519.39 728.89 520.34 730.64 518.89 C 732.76 517.12 734.81 519.32 733.04 521.46 z M 703.00 516.51 L 703.00 522.57 L 697.11 522.74 C 692.59 522.86 690.84 522.49 689.61 521.12 C 686.16 517.31 689.20 513.00 695.33 513.00 C 699.23 513.00 699.94 512.03 697.51 510.01 C 696.57 509.23 694.74 509.01 692.51 509.43 C 689.82 509.94 689.00 509.76 689.00 508.65 C 689.00 506.82 691.16 506.00 696.03 506.00 C 701.27 506.00 703.00 508.60 703.00 516.51 z M 1058.00 516.98 C 1058.00 522.33 1057.78 523.00 1056.00 523.00 C 1054.16 523.00 1054.00 522.33 1054.00 514.61 L 1054.00 506.22 L 1060.45 506.12 C 1068.60 506.00 1070.00 507.55 1070.00 516.72 C 1070.00 522.33 1069.79 523.00 1068.00 523.00 C 1066.23 523.00 1066.00 522.33 1066.00 517.12 C 1066.00 510.13 1064.41 508.04 1060.47 509.83 C 1058.24 510.85 1058.00 511.55 1058.00 516.98 z M 984.00 517.57 C 984.00 522.33 983.75 523.00 982.00 523.00 C 980.16 523.00 980.00 522.33 980.00 514.65 L 980.00 506.30 L 986.47 506.18 C 994.65 506.05 996.00 507.55 996.00 516.80 C 996.00 522.30 995.77 523.10 994.25 522.81 C 992.89 522.55 992.43 521.28 992.19 517.02 C 991.87 511.42 990.74 509.00 988.45 509.00 C 985.62 509.00 984.00 512.11 984.00 517.57 z M 879.00 517.57 C 879.00 521.43 878.61 523.00 877.67 523.00 C 875.34 523.00 875.00 521.85 875.00 513.97 L 875.00 506.28 L 881.23 506.19 C 889.81 506.07 891.00 507.30 891.00 516.23 C 891.00 522.28 890.78 523.10 889.25 522.81 C 887.86 522.55 887.44 521.25 887.19 516.51 C 887.02 513.23 886.35 510.21 885.69 509.79 C 881.84 507.34 879.00 510.64 879.00 517.57 z M 760.00 518.22 C 760.00 521.80 759.62 523.00 758.50 523.00 C 757.29 523.00 757.00 521.41 757.00 514.68 L 757.00 506.36 L 763.47 506.18 C 771.17 505.97 771.76 506.63 772.68 516.51 C 773.26 522.67 773.18 523.00 771.14 523.00 C 769.23 523.00 769.00 522.45 769.00 517.93 C 769.00 511.98 767.67 509.00 765.02 509.00 C 762.11 509.00 760.00 512.88 760.00 518.22 z M 1199.39 521.70 C 1195.53 524.53 1185.85 522.38 1187.89 519.15 C 1188.57 518.07 1189.20 518.04 1190.97 518.98 C 1193.51 520.34 1198.33 519.49 1197.76 517.78 C 1197.55 517.15 1195.38 516.16 1192.94 515.57 C 1189.06 514.64 1188.46 514.13 1188.16 511.55 C 1187.94 509.59 1188.42 508.16 1189.61 507.30 C 1191.54 505.88 1197.78 505.57 1199.70 506.79 C 1201.76 508.10 1199.66 509.57 1195.77 509.53 C 1190.70 509.49 1190.88 511.17 1196.16 513.03 C 1199.78 514.30 1200.56 515.04 1200.84 517.48 C 1201.06 519.42 1200.57 520.84 1199.39 521.70 z M 921.50 515.97 C 921.50 521.34 921.20 522.51 919.75 522.80 C 918.22 523.10 918.00 522.28 918.00 516.07 C 918.00 510.45 917.69 509.00 916.50 509.00 C 915.67 509.00 915.00 508.33 915.00 507.50 C 915.00 506.67 915.67 506.00 916.50 506.00 C 917.33 506.00 918.00 505.11 918.00 504.02 C 918.00 501.68 922.14 498.69 924.70 499.18 C 927.27 499.68 926.93 502.44 924.25 502.82 C 921.47 503.21 921.25 506.00 924.00 506.00 C 926.75 506.00 926.53 508.79 923.75 509.18 C 921.68 509.47 921.50 510.02 921.50 515.97 z M 786.73 521.33 C 786.22 522.88 781.95 523.26 779.75 521.94 C 778.40 521.14 778.00 519.55 778.00 514.95 C 778.00 510.33 777.67 509.00 776.50 509.00 C 775.67 509.00 775.00 508.33 775.00 507.50 C 775.00 506.67 775.67 506.00 776.50 506.00 C 777.33 506.00 778.00 505.11 778.00 504.00 C 778.00 502.67 778.67 502.00 780.00 502.00 C 781.33 502.00 782.00 502.67 782.00 504.00 C 782.00 505.33 782.67 506.00 784.00 506.00 C 785.11 506.00 786.00 506.67 786.00 507.50 C 786.00 508.35 785.11 509.00 783.95 509.00 C 782.10 509.00 781.93 509.52 782.20 514.25 C 782.46 518.87 782.78 519.54 784.81 519.83 C 786.08 520.01 786.94 520.68 786.73 521.33 z M 905.31 521.50 C 905.41 522.05 904.08 522.64 902.35 522.81 C 898.16 523.21 896.00 520.15 896.00 513.78 C 896.00 511.15 895.55 509.00 895.00 509.00 C 894.45 509.00 894.00 508.33 894.00 507.50 C 894.00 506.67 894.40 506.00 894.88 506.00 C 895.37 506.00 896.00 505.10 896.29 504.00 C 896.58 502.90 897.53 502.00 898.41 502.00 C 899.33 502.00 900.00 502.84 900.00 504.00 C 900.00 505.33 900.67 506.00 902.00 506.00 C 903.11 506.00 904.00 506.67 904.00 507.50 C 904.00 508.35 903.11 509.00 901.95 509.00 C 900.10 509.00 899.93 509.52 900.20 514.21 C 900.46 518.71 900.82 519.49 902.81 519.96 C 904.08 520.26 905.20 520.95 905.31 521.50 z M 812.78 511.26 C 813.05 522.49 812.97 523.00 811.03 523.00 C 809.10 523.00 809.00 522.40 809.00 510.93 C 809.00 499.97 809.16 498.88 810.75 499.19 C 812.28 499.48 812.54 501.01 812.78 511.26 z M 712.00 516.49 C 711.61 521.16 711.11 522.56 709.75 522.81 C 708.20 523.11 708.00 522.21 708.00 514.74 L 708.00 506.33 L 712.50 506.33 C 716.13 506.33 717.00 506.67 717.00 508.10 C 717.00 509.16 716.11 509.99 714.75 510.18 C 712.77 510.46 712.44 511.22 712.00 516.49 z M 1119.00 516.98 C 1119.00 522.33 1118.78 523.00 1117.00 523.00 C 1115.16 523.00 1115.00 522.33 1115.00 514.50 C 1115.00 506.67 1115.16 506.00 1117.00 506.00 C 1118.10 506.00 1119.00 506.54 1119.00 507.20 C 1119.00 508.13 1119.27 508.13 1120.20 507.20 C 1120.86 506.54 1121.98 506.00 1122.70 506.00 C 1124.94 506.00 1124.12 508.63 1121.50 509.82 C 1119.24 510.85 1119.00 511.53 1119.00 516.98 z M 1152.75 518.92 C 1155.22 520.36 1156.62 520.24 1158.43 518.43 C 1160.29 516.57 1160.50 511.90 1158.80 510.20 C 1158.14 509.54 1156.66 509.00 1155.50 509.00 C 1154.34 509.00 1152.86 509.54 1152.20 510.20 C 1150.35 512.05 1150.71 517.73 1152.75 518.92 z M 1132.22 518.44 C 1133.44 519.30 1134.79 520.00 1135.22 520.00 C 1136.48 520.00 1140.00 516.11 1140.00 514.72 C 1140.00 512.49 1136.96 509.00 1135.01 509.00 C 1130.27 509.00 1128.29 515.69 1132.22 518.44 z M 1079.75 518.92 C 1082.23 520.37 1083.62 520.24 1085.48 518.37 C 1087.51 516.35 1087.12 511.09 1084.83 509.65 C 1083.64 508.91 1082.40 508.95 1080.58 509.78 C 1078.53 510.72 1078.00 511.67 1078.00 514.43 C 1078.00 516.68 1078.62 518.26 1079.75 518.92 z M 949.00 510.43 C 949.00 511.29 948.55 512.00 948.00 512.00 C 947.45 512.00 947.00 511.29 947.00 510.43 C 947.00 509.34 946.42 509.05 945.08 509.47 C 942.54 510.28 941.48 508.41 943.73 507.06 C 945.41 506.05 945.41 505.95 943.75 504.95 C 941.10 503.36 941.60 501.68 944.50 502.41 C 946.34 502.87 947.00 502.64 947.00 501.52 C 947.00 500.68 947.45 500.00 948.00 500.00 C 948.55 500.00 949.00 500.68 949.00 501.52 C 949.00 502.64 949.66 502.87 951.50 502.41 C 954.40 501.68 954.88 503.34 952.25 505.01 C 951.00 505.80 950.85 506.27 951.75 506.64 C 953.94 507.56 953.24 510.21 951.00 509.50 C 949.58 509.05 949.00 509.32 949.00 510.43 z M 963.00 509.96 C 963.00 511.08 962.55 512.00 962.00 512.00 C 961.45 512.00 961.00 511.10 961.00 509.99 C 961.00 508.25 960.74 508.14 959.05 509.20 C 956.40 510.86 955.27 509.46 957.38 507.13 C 958.89 505.46 958.91 505.18 957.54 504.65 C 954.92 503.65 955.74 501.72 958.50 502.41 C 960.34 502.87 961.00 502.64 961.00 501.52 C 961.00 500.68 961.45 500.00 962.00 500.00 C 962.55 500.00 963.00 500.68 963.00 501.52 C 963.00 502.64 963.66 502.87 965.50 502.41 C 968.39 501.68 968.91 503.39 966.25 504.89 C 964.61 505.82 964.63 505.98 966.50 507.36 C 969.01 509.21 967.89 510.55 965.09 509.05 C 963.29 508.08 963.00 508.21 963.00 509.96 z M 935.00 509.88 C 935.00 511.04 934.55 512.00 934.00 512.00 C 933.45 512.00 933.00 511.32 933.00 510.48 C 933.00 509.36 932.34 509.13 930.50 509.59 C 927.60 510.32 927.10 508.64 929.75 507.05 C 931.41 506.05 931.41 505.95 929.73 504.94 C 927.48 503.59 928.54 501.72 931.08 502.53 C 932.42 502.95 933.00 502.66 933.00 501.57 C 933.00 500.71 933.45 500.00 934.00 500.00 C 934.55 500.00 935.00 500.90 935.00 502.01 C 935.00 503.75 935.26 503.86 936.95 502.80 C 939.57 501.16 941.02 502.78 938.56 504.58 C 936.68 505.95 936.68 506.04 938.46 507.35 C 939.79 508.32 939.97 508.90 939.11 509.43 C 938.45 509.84 937.26 509.63 936.46 508.96 C 935.26 507.97 935.00 508.13 935.00 509.88 z M 1006.25 517.97 C 1006.43 518.04 1006.60 518.11 1006.75 518.17 C 1007.99 518.67 1008.54 518.90 1009.07 518.85 C 1009.57 518.80 1010.05 518.51 1011.07 517.96 C 1013.26 516.79 1013.70 512.10 1011.80 510.20 C 1011.14 509.54 1009.66 509.00 1008.50 509.00 C 1005.61 509.00 1004.00 510.87 1004.00 514.23 C 1004.00 516.23 1004.66 517.33 1006.25 517.97 z M 1172.00 517.00 C 1173.10 518.10 1174.64 519.00 1175.43 519.00 C 1177.44 519.00 1180.00 516.20 1180.00 514.00 C 1180.00 511.61 1177.38 509.00 1174.99 509.00 C 1173.26 509.00 1170.00 512.41 1170.00 514.22 C 1170.00 514.65 1170.90 515.90 1172.00 517.00 z M 840.22 517.44 C 843.03 519.41 843.29 519.40 846.10 517.12 C 848.16 515.45 848.29 514.93 847.22 512.59 C 845.72 509.28 843.58 508.42 840.44 509.85 C 837.29 511.28 837.18 515.31 840.22 517.44 z M 975.00 514.50 C 975.00 522.33 974.84 523.00 973.00 523.00 C 971.16 523.00 971.00 522.33 971.00 514.50 C 971.00 506.67 971.16 506.00 973.00 506.00 C 974.84 506.00 975.00 506.67 975.00 514.50 z M 830.00 514.50 C 830.00 520.92 829.67 523.00 828.67 523.00 C 826.34 523.00 826.00 521.84 826.00 513.83 C 826.00 506.67 826.17 506.00 828.00 506.00 C 829.84 506.00 830.00 506.67 830.00 514.50 z M 821.00 511.50 C 821.00 521.06 820.75 523.00 819.50 523.00 C 818.25 523.00 818.00 521.06 818.00 511.50 C 818.00 501.94 818.25 500.00 819.50 500.00 C 820.75 500.00 821.00 501.94 821.00 511.50 z M 751.33 520.24 C 751.40 521.63 750.79 522.61 749.72 522.82 C 748.20 523.11 748.00 522.15 748.00 514.57 C 748.00 507.62 748.28 506.00 749.50 506.00 C 750.65 506.00 751.03 507.38 751.11 512.00 C 751.17 515.30 751.27 519.01 751.33 520.24 z M 664.00 512.20 C 664.00 512.64 666.03 513.00 668.50 513.00 C 670.97 513.00 673.00 512.64 673.00 512.20 C 673.00 510.70 670.61 509.00 668.50 509.00 C 666.39 509.00 664.00 510.70 664.00 512.20 z M 859.00 512.20 C 859.00 512.64 861.03 513.00 863.50 513.00 C 865.97 513.00 868.00 512.64 868.00 512.20 C 868.00 510.70 865.61 509.00 863.50 509.00 C 861.39 509.00 859.00 510.70 859.00 512.20 z M 723.00 512.20 C 723.00 512.64 725.04 513.00 727.54 513.00 C 731.76 513.00 732.00 512.86 731.00 511.00 C 729.36 507.93 723.00 508.89 723.00 512.20 z M 1099.00 512.20 C 1099.00 512.64 1101.04 513.00 1103.54 513.00 C 1107.76 513.00 1108.00 512.86 1107.00 511.00 C 1105.36 507.93 1099.00 508.89 1099.00 512.20 z M 692.35 518.46 C 693.45 521.32 699.00 519.95 699.00 516.81 C 699.00 515.11 698.55 514.94 695.75 515.54 C 691.77 516.39 691.61 516.53 692.35 518.46 z M 792.64 511.49 C 792.18 512.70 792.96 513.00 796.53 513.00 C 801.17 513.00 802.05 512.12 799.51 510.01 C 797.70 508.50 793.44 509.42 792.64 511.49 z M 751.81 500.74 C 751.46 502.56 748.91 503.57 747.70 502.37 C 746.13 500.80 747.13 499.00 749.57 499.00 C 751.48 499.00 752.06 499.45 751.81 500.74 z M 975.32 501.60 C 974.48 503.81 971.00 503.33 971.00 501.00 C 971.00 499.73 971.67 499.00 972.83 499.00 C 975.19 499.00 976.00 499.84 975.32 501.60 z M 830.50 501.00 C 830.50 501.83 829.49 502.64 828.25 502.82 C 826.52 503.07 826.00 502.65 826.00 501.00 C 826.00 499.35 826.52 498.93 828.25 499.18 C 829.49 499.36 830.50 500.17 830.50 501.00 z" stroke-linecap="round"></path>
</g>
		<g id="ed0ca0d5-2b89-4f77-bc12-6b7986e7312b-child-1">
<path style="stroke: rgb(193,193,193); stroke-opacity: 1.00; stroke-width: 0; stroke-dasharray: none; stroke-linecap: butt; stroke-dashoffset: 0; stroke-linejoin: miter; stroke-miterlimit: 4; fill: rgb(205,24,38); fill-opacity: 1.00; fill-rule: nonzero; opacity: 1;" transform="matrix(1.920266 0 0 1.919797 972.55843 424.748635) matrix(1 0 0 1 204.971026 -7.597613)  translate(-899.391546, -376.402386)" d="M 837.66 445.00 L 827.15 469.50 L 811.57 469.78 C 801.08 469.96 796.00 469.70 796.00 468.99 C 796.00 468.06 813.23 429.55 848.23 352.25 L 858.31 330.00 L 873.90 330.01 L 889.50 330.02 L 893.21 338.26 C 899.45 352.11 924.71 407.97 941.42 444.86 C 947.24 457.70 952.00 468.62 952.00 469.11 C 952.00 469.60 945.08 470.00 936.62 470.00 C 924.93 470.00 920.98 469.68 920.12 468.65 C 919.51 467.91 916.36 461.04 913.14 453.40 L 907.27 439.50 L 880.63 439.23 C 860.27 439.03 854.02 438.68 854.08 437.73 C 854.12 437.06 856.27 431.77 858.86 426.00 L 863.57 415.50 L 879.78 415.23 C 891.14 415.03 896.00 414.61 896.00 413.80 C 896.00 413.17 894.65 409.70 893.01 406.08 C 891.37 402.46 886.53 391.24 882.26 381.14 C 877.99 371.05 874.07 362.80 873.55 362.81 C 872.74 362.83 864.57 381.26 851.52 412.50 C 849.68 416.90 843.45 431.52 837.66 445.00 Z M 997.76 399.75 L 997.50 469.50 L 982.94 469.78 C 974.94 469.93 968.07 469.74 967.69 469.36 C 967.31 468.98 967.00 437.47 967.00 399.33 L 967.00 330.00 L 998.01 330.00 Z M 994.01 309.33 C 990.78 312.32 986.85 315.68 985.27 316.81 L 982.39 318.86 L 978.95 316.27 C 962.81 304.14 957.92 292.45 966.11 285.56 C 970.31 282.03 975.01 282.14 979.19 285.88 L 982.42 288.76 L 985.11 285.88 C 988.91 281.82 995.45 281.77 999.30 285.79 C 1005.36 292.11 1003.46 300.58 994.01 309.33 Z" stroke-linecap="round"></path>
</g>
</g>
</g>

  </svg>